<?xml version="1.0" encoding="UTF-8"?>
<svg width="265px" height="256px" viewBox="0 0 265 256" version="1.1" xmlns="http://www.w3.org/2000/svg" xmlns:xlink="http://www.w3.org/1999/xlink">
    <!-- Generator: Sketch 47.1 (45422) - http://www.bohemiancoding.com/sketch -->
    <title>CA Logo</title>
    <desc>Created with Sketch.</desc>
    <defs></defs>
    <g id="Page-1" stroke="none" stroke-width="1" fill="none" fill-rule="evenodd">
        <g id="Apple-TV" transform="translate(-605.000000, -245.000000)" fill="#000000">
            <g id="CA-Logo" transform="translate(605.000000, 245.000000)">
                <path d="M166.001464,88.9970717 L190.5,40 L258.022081,175.044162 C262.546556,161.690749 265,147.381891 265,132.5 C265,59.3222707 205.677729,0 132.5,0 C59.3222707,0 0,59.3222707 0,132.5 C0,188.107578 34.255307,235.7144 82.8151514,255.369697 L117.5935,185.812999 C94.7166553,179.150694 78,158.027539 78,133 C78,102.624339 102.624339,78 133,78 C145.382322,78 156.808947,82.0918275 166.001464,88.9970717 Z" id="Combined-Shape"></path>
                <rect id="Rectangle" x="161" y="125" width="55" height="55" rx="27.5"></rect>
            </g>
        </g>
    </g>
</svg>